<?xml version="1.0" encoding="UTF-8"?>
<!DOCTYPE svg PUBLIC "-//W3C//DTD SVG 1.1//EN" "http://www.w3.org/Graphics/SVG/1.1/DTD/svg11.dtd">
<!-- Creator: CorelDRAW X6 -->
<svg xmlns="http://www.w3.org/2000/svg" xml:space="preserve" width="210mm" height="297mm" version="1.1"
  style="shape-rendering:geometricPrecision; text-rendering:geometricPrecision; image-rendering:optimizeQuality; fill-rule:evenodd; clip-rule:evenodd"
  viewBox="0 0 21000 29700" xmlns:xlink="http://www.w3.org/1999/xlink">
  <defs>
    <style>
      @charset &quot;
      UTF-8&quot;

      .prefix__fil1 {
        fill: #000000
      }
      .prefix__fil0 {
        fill: #2e2e2d
      }
      .prefix__fil2 {
        fill: #080808
      }

    </style>
  </defs>
  <g id="Capa_x0020_1">
    <metadata id="CorelCorpID_0Corel-Layer" />
    <path class="prefix__fil0 triangulo_amarillo"
      d="M1630 18163c694,-1178 1453,-2364 2182,-3523 730,-1162 1432,-2352 2155,-3522l3242 -5256c204,-326 905,-1552 1112,-1734 194,177 1919,3041 2199,3503 705,1164 1424,2372 2157,3516 737,1153 1419,2365 2165,3513 734,1130 1465,2339 2162,3495l-17373 8zm8579 -15375c-384,96 -783,922 -997,1269 -292,472 -587,942 -878,1415 -2589,4203 -5258,8431 -7882,12621 -157,251 -249,609 -56,868 196,262 665,211 959,207 6026,-88 12214,86 18247,9 918,-12 911,-636 473,-1260 -303,-431 -594,-953 -878,-1406l-7890 -12650c-233,-373 -573,-1204 -1097,-1072z" />
    <path class="prefix__fil0 palo_admiracion"
      d="M9875 7747c-364,95 -298,353 -286,667l219 4514c5,152 17,778 103,869 101,107 746,108 837,-18 90,-123 205,-3204 216,-3603 16,-592 66,-1202 90,-1797 11,-270 54,-575 -293,-641 -125,-24 -770,-21 -886,9z" />
    <path class="prefix__fil0 punto_admiracion"
      d="M9252 15600c136,1444 2255,1226 2135,-164 -125,-1440 -2263,-1203 -2135,164z" />
    <g id="_654468400">
      <path class="prefix__fil2 interior"
        d="M9252 15600c-129,-1367 2010,-1604 2135,-164 120,1390 -1998,1608 -2135,164zm623 -7852c117,-30 761,-33 886,-9 347,66 304,370 293,641 -24,595 -74,1205 -90,1797 -11,399 -126,3480 -216,3603 -92,126 -736,124 -837,18 -86,-91 -98,-717 -103,-869l-219 -4514c-12,-314 -78,-572 286,-667zm-8245 10415l17373 -8c-697,-1156 -1428,-2365 -2162,-3495 -746,-1148 -1428,-2361 -2165,-3513 -732,-1145 -1452,-2352 -2157,-3516 -280,-462 -2005,-3326 -2199,-3503 -206,183 -908,1408 -1112,1734l-3242 5256c-723,1170 -1425,2360 -2155,3522 -729,1160 -1488,2345 -2182,3523z" />
      <path class="prefix__fil1 borde exterior"
        d="M10209 2788c525,-131 865,699 1097,1072l7890 12650c284,454 575,975 878,1406 438,624 445,1248 -473,1260 -6033,78 -12221,-97 -18247,-9 -294,4 -763,55 -959,-207 -194,-259 -101,-617 56,-868 2624,-4190 5293,-8418 7882,-12621 291,-473 586,-943 878,-1415 214,-346 613,-1172 997,-1269zm-10335 15892c62,855 851,913 1518,902 2281,-38 4829,-4 7128,-3 3175,2 6350,-5 9525,1 526,1 1858,82 2266,-147 635,-357 513,-1112 165,-1632 -629,-940 -1221,-1969 -1826,-2933 -1225,-1951 -2436,-3919 -3644,-5880 -1208,-1960 -2460,-3908 -3645,-5880 -342,-569 -813,-1034 -1528,-654 -326,173 -791,1028 -998,1373 -593,988 -1221,1957 -1821,2941 -2082,3416 -4272,6882 -6390,10297 -273,441 -786,1100 -749,1615z" />
    </g>
  </g>
</svg>