<?xml version="1.0" encoding="UTF-8"?>
<!DOCTYPE svg PUBLIC "-//W3C//DTD SVG 1.1//EN" "http://www.w3.org/Graphics/SVG/1.1/DTD/svg11.dtd">
<!-- Creator: CorelDRAW X6 -->
<?xml-stylesheet href="temp.css" type="text/css"?>
<svg xmlns="http://www.w3.org/2000/svg" xml:space="preserve" width="60mm" height="60mm" version="1.1"
  style="shape-rendering:geometricPrecision; text-rendering:geometricPrecision; image-rendering:optimizeQuality; fill-rule:evenodd; clip-rule:evenodd"
  viewBox="0 0 6000 6000" xmlns:xlink="http://www.w3.org/1999/xlink">
  <defs>
    <style>
      @charset "UTF-8";

      .fil0 {
        fill: #ED3237
      }
    </style>
  </defs>
  <g id="Capa_x0020_1">
    <metadata id="CorelCorpID_0Corel-Layer" />
    <g id="_747359520">
      <g>
        <path class="fil0"
          d="M2167 4509c0,-177 113,-349 270,-415l71 -27c0,-38 -3,-3058 1,-3084 4,-29 18,-48 36,-67 43,-43 112,-41 158,-3 16,13 33,42 37,67 8,48 3,147 3,204l0 2886c14,1 56,17 69,23 69,32 113,67 162,123 50,56 107,168 107,273 0,122 -20,194 -83,286 -36,52 -87,97 -141,130 -181,108 -410,74 -561,-77 -79,-79 -128,-203 -128,-319zm-39 -821c-136,91 -201,154 -291,287 -6,9 -9,15 -15,24l-27 48c-47,96 -79,181 -96,289 -4,23 -5,48 -8,70 -2,13 0,26 -1,38 -5,58 1,48 0,90 -1,88 41,253 80,331 7,14 12,26 19,40 15,29 47,85 66,110 45,61 55,75 107,127 85,85 184,156 296,201 244,99 506,104 748,-5 38,-17 114,-57 149,-83 42,-31 59,-42 98,-78 6,-6 9,-7 15,-13 23,-21 76,-79 97,-107 70,-93 125,-194 158,-306 53,-181 54,-370 -3,-550 -15,-47 -24,-66 -42,-109l-52 -99c-56,-89 -129,-176 -211,-241 -13,-11 -75,-59 -91,-63l0 -2352c0,-156 4,-318 -3,-469 -3,-60 -28,-128 -54,-181 -13,-26 -29,-50 -45,-72 -35,-47 -75,-82 -123,-114 -24,-16 -48,-30 -76,-41 -100,-41 -195,-52 -301,-30 -70,15 -146,49 -200,93 -115,93 -170,196 -190,341 -6,43 -2,392 -2,467l0 2355z" />
        <path class="fil0"
          d="M4022 1202c0,105 9,159 58,247 6,11 14,21 21,32 28,41 64,74 98,109 58,58 114,108 114,196 0,98 -49,137 -111,199 -57,56 -102,104 -139,177 -32,64 -41,125 -41,202 0,54 57,112 112,112 46,0 79,-9 107,-47 10,-14 18,-26 23,-44 6,-23 2,-40 6,-64 15,-99 119,-161 192,-252 48,-60 83,-137 92,-215 7,-58 6,-56 2,-112 -7,-100 -52,-180 -114,-252l-50 -53c-52,-52 -124,-112 -124,-192 0,-110 24,-129 98,-203 85,-85 159,-160 183,-289 18,-99 12,-200 -109,-214 -44,-5 -103,29 -120,79 -18,53 7,85 -44,160 -17,26 -44,49 -66,71 -45,45 -91,89 -125,146 -31,50 -63,129 -63,208z" />
        <path class="fil0"
          d="M3550 1205c0,112 12,171 68,259l33 46c56,68 97,94 150,160 8,10 15,21 20,33 23,47 24,122 2,172 -28,61 -113,121 -147,166l-23 27c-59,70 -103,166 -103,263l0 34c0,55 57,112 112,112 26,0 42,0 66,-12 41,-21 66,-63 68,-114 4,-82 23,-101 70,-153 2,-3 2,-2 4,-4l107 -111c42,-52 78,-106 95,-179 43,-185 -19,-333 -129,-443 -62,-62 -147,-129 -147,-216 0,-82 8,-110 65,-170l68 -69c72,-72 129,-154 148,-257 6,-31 12,-90 3,-122 -5,-17 -13,-31 -23,-44 -19,-25 -52,-42 -92,-46 -15,-1 -44,7 -55,12 -52,24 -73,67 -74,130 -2,122 -143,177 -226,316 -32,53 -62,126 -62,209z" />
      </g>
    </g>
  </g>
</svg>