<svg xmlns="http://www.w3.org/2000/svg" width="128" height="128" viewBox="0 12500 12000 10" shape-rendering="geometricPrecision" text-rendering="geometricPrecision" image-rendering="optimizeQuality" fill-rule="evenodd" clip-rule="evenodd">
<defs>
  <style>@charset &quot;UTF-8&quot;;.prefix__fil1{fill:#1ea1aa}.prefix__fil2{fill:#406589}.prefix__fil3{fill:#727376}.prefix__fil0{fill:#fbb72d}</style></defs>
  <g id="prefix__Capa_x0020_1"><path id="prefix__alaAmS" class="prefix__fil0" d="M3327 7254c59 179 2162 3703 2237 3913 321-132 694-575 707-1058 11-441-350-932-530-1249l-970-1680c-83-140-255-473-335-553l-1109 627z"/><path id="prefix__alaAmI" class="prefix__fil0" d="M8655 16466l1106-630-2246-3906c-301 107-689 580-699 1055-10 441 352 937 533 1250 156 270 1212 2142 1306 2230z"/><path id="prefix__alaVerdeI" class="prefix__fil1" d="M1217 12188l4517 7c8-223-44-427-126-608-94-207-161-283-300-412-325-301-664-277-1185-277-500 0-2590-25-2903 8l-2 1283z"/><path id="prefix__alaVerdeD" class="prefix__fil1" d="M11866 12186l3-1279-4514-10c-22 459 202 824 426 1025 316 285 680 272 1188 272 459 0 2637 26 2898-9z"/><path id="prefix__alaAzulI" class="prefix__fil2" d="M4435 16466c91-91 1511-2588 1700-2920 94-164 192-325 283-486 82-145 228-360 278-508-497-162-870-337-1368 17-301 214-516 674-725 1041l-970 1682c-86 152-262 412-308 549 181 101 367 208 558 320 153 89 397 249 552 305z"/><path id="prefix__alaAzulS" class="prefix__fil2" d="M6391 10545c504 154 834 331 1352-8 291-191 530-682 730-1037 213-377 427-743 647-1119 113-193 212-374 323-561 90-152 258-414 314-561l-1100-638c-98 102-480 796-581 973-214 379-1642 2789-1686 2952z"/></g></svg>